<svg xmlns="http://www.w3.org/2000/svg" viewBox="0 0 1000 1600" role="img" aria-label="Capa do projeto DSList">
  <defs>
    <linearGradient id="bg" x1="0" y1="0" x2="1" y2="1">
      <stop offset="0%" stop-color="#0f172a"/>
      <stop offset="55%" stop-color="#1e293b"/>
      <stop offset="100%" stop-color="#0b1120"/>
    </linearGradient>
    <linearGradient id="accent" x1="0" y1="0" x2="1" y2="1">
      <stop offset="0%" stop-color="#38bdf8"/>
      <stop offset="100%" stop-color="#22d3ee"/>
    </linearGradient>
    <linearGradient id="card" x1="0" y1="0" x2="0" y2="1">
      <stop offset="0%" stop-color="#0b1222"/>
      <stop offset="100%" stop-color="#111c33"/>
    </linearGradient>
  </defs>

  <rect width="1000" height="1600" rx="64" fill="url(#bg)"/>
  <circle cx="860" cy="240" r="220" fill="#164e63" opacity="0.35"/>
  <circle cx="160" cy="1380" r="260" fill="#1d4ed8" opacity="0.22"/>

  <rect x="80" y="120" width="840" height="210" rx="30" fill="#0b1222" opacity="0.75"/>
  <text x="500" y="210" text-anchor="middle" fill="#e2e8f0" font-family="Poppins, Arial, sans-serif" font-size="66" font-weight="700">DSList</text>
  <text x="500" y="275" text-anchor="middle" fill="#7dd3fc" font-family="Poppins, Arial, sans-serif" font-size="30" letter-spacing="3">JAVA SPRING API</text>

  <rect x="110" y="390" width="780" height="480" rx="28" fill="url(#card)" stroke="#334155" stroke-width="4"/>
  <text x="160" y="460" fill="#cbd5e1" font-family="Poppins, Arial, sans-serif" font-size="26" font-weight="600">/games</text>
  <rect x="160" y="500" width="680" height="54" rx="12" fill="#1e293b"/>
  <rect x="160" y="580" width="680" height="54" rx="12" fill="#1e293b"/>
  <rect x="160" y="660" width="430" height="54" rx="12" fill="#1e293b"/>
  <rect x="620" y="660" width="220" height="54" rx="12" fill="url(#accent)" opacity="0.95"/>
  <text x="730" y="695" text-anchor="middle" fill="#082f49" font-family="Poppins, Arial, sans-serif" font-size="22" font-weight="700">GET</text>

  <rect x="110" y="930" width="370" height="520" rx="26" fill="#0b1222" stroke="#334155" stroke-width="3"/>
  <text x="295" y="990" text-anchor="middle" fill="#7dd3fc" font-family="Poppins, Arial, sans-serif" font-size="26" font-weight="600">Spring</text>
  <text x="295" y="1035" text-anchor="middle" fill="#e2e8f0" font-family="Poppins, Arial, sans-serif" font-size="32" font-weight="700">MVC</text>
  <text x="295" y="1110" text-anchor="middle" fill="#94a3b8" font-family="Poppins, Arial, sans-serif" font-size="22">Controller</text>
  <text x="295" y="1160" text-anchor="middle" fill="#94a3b8" font-family="Poppins, Arial, sans-serif" font-size="22">Service</text>
  <text x="295" y="1210" text-anchor="middle" fill="#94a3b8" font-family="Poppins, Arial, sans-serif" font-size="22">Repository</text>

  <rect x="520" y="930" width="370" height="520" rx="26" fill="#0b1222" stroke="#334155" stroke-width="3"/>
  <text x="705" y="995" text-anchor="middle" fill="#7dd3fc" font-family="Poppins, Arial, sans-serif" font-size="24" font-weight="600">Deploy</text>
  <rect x="580" y="1040" width="250" height="80" rx="16" fill="#1e293b"/>
  <text x="705" y="1090" text-anchor="middle" fill="#e2e8f0" font-family="Poppins, Arial, sans-serif" font-size="28" font-weight="700">Railway</text>
  <rect x="580" y="1160" width="250" height="80" rx="16" fill="#1e293b"/>
  <text x="705" y="1210" text-anchor="middle" fill="#e2e8f0" font-family="Poppins, Arial, sans-serif" font-size="28" font-weight="700">PostgreSQL</text>

  <text x="500" y="1525" text-anchor="middle" fill="#93c5fd" font-family="Poppins, Arial, sans-serif" font-size="24" letter-spacing="2">API REST | JAVA | SPRING BOOT</text>
</svg>